<svg width="400" height="400" viewBox="0 0 400 400" xmlns="http://www.w3.org/2000/svg">
  <!-- Background -->
  <rect width="400" height="400" fill="#1e293b" />
  
  <!-- Profile silhouette -->
  <circle cx="200" cy="140" r="85" fill="#475569" />
  <path d="M120 350v-80c0-44.18 35.82-80 80-80s80 35.82 80 80v80H120z" fill="#475569" />
  
  <!-- Text -->
  <text x="200" y="250" font-family="Arial, sans-serif" font-size="24" fill="#94a3b8" text-anchor="middle">Team Member</text>
  
  <!-- Decorative elements -->
  <circle cx="320" cy="80" r="20" fill="#ec4899" opacity="0.3" />
  <circle cx="80" cy="320" r="30" fill="#ec4899" opacity="0.3" />
  
  <!-- Grid pattern -->
  <path d="M0 40h400M0 80h400M0 120h400M0 160h400M0 200h400M0 240h400M0 280h400M0 320h400M0 360h400" stroke="#334155" stroke-width="1" />
  <path d="M40 0v400M80 0v400M120 0v400M160 0v400M200 0v400M240 0v400M280 0v400M320 0v400M360 0v400" stroke="#334155" stroke-width="1" />
</svg> 